<?xml version="1.0" encoding="UTF-8"?>
<svg id="Layer_1" data-name="Layer 1" xmlns="http://www.w3.org/2000/svg" viewBox="0 0 138.22 121.84">
  <defs>
    <style>
      .cls-1 {
        fill: #000;
        stroke-width: 0px;
      }
    </style>
  </defs>
  <path class="cls-1" d="M68.7,56.14c-.86,5.19-1.52,11.33-1.56,18.24-.04,6.64.49,12.57,1.23,17.62H.16c-.05-.17-.11-.34-.16-.51.54-.2,1.06-.5,1.62-.58,4.35-.61,7.52-4.44,7.96-8.81.12-1.19.19-2.39.19-3.59.01-22.04,0-44.08,0-66.12,0-1-.1-2.62-.24-3.61C8.82,3.65,7.15,2.09,1.63.87c-.54-.12-1.07-.29-1.56-.87h34.21c.03.16.06.33.09.49-1.01.22-2.03.42-3.03.66-4.13.99-6,3.01-6.6,7.18-.15,1.01-.28,2.04-.28,3.06-.02,25.38-.01,50.75-.01,76.13v1.9c4.14,0,8.13.1,12.12-.04,2.11-.07,4.23-.44,6.3-.88,8.48-1.81,14.02-7.14,17-15.04.47-1.25.9-2.51,1.3-3.78,1.74-5.53,2.59-9.03,3.23-11.34.86-3.12,2.39-7.51,5.31-12.75-.34,3.52-.67,7.04-1.01,10.56Z"/>
  <path class="cls-1" d="M137.12,90.21c.41.12.71.2,1.1.31-2.01,10.2-5.54,19.45-14.38,25.73-4.79,3.4-10.24,4.97-16.03,5.43-8.09.64-15.89-.5-23.14-4.31-9.4-4.93-15.38-12.79-18.88-22.65-3.06-8.62-3.75-17.54-3.01-26.6.63-7.81,2.52-15.3,6.36-22.18,7.11-12.74,17.99-20.01,32.47-21.6,11.79-1.29,23.16.85,34.2,4.99.58.22.81.47.74,1.12-1.07,9.97-2.11,19.95-3.17,29.93-.02.19-.1.38-.17.64-.37-.05-.71-.09-1-.13-.39-2.88-.69-5.69-1.18-8.47-.66-3.76-1.87-7.35-3.78-10.68-2.92-5.12-7.16-8.66-12.78-10.43-6.4-2.02-12.91-2.26-19.38-.43-9.28,2.63-15.04,9-18.28,17.86-2.2,6.03-2.7,12.31-2.41,18.66.39,8.46,2.28,16.54,6.6,23.91,5.7,9.71,13.97,15.87,25.24,17.63,4.95.77,9.89.59,14.75-.72,8-2.17,12.84-7.55,15.32-15.27.28-.87.51-1.76.8-2.75Z"/>
</svg>